<svg xmlns="http://www.w3.org/2000/svg" width="256" height="256"><path fill-opacity=".016" d="M0 128.004v128.004l128.25-.254 128.25-.254.254-127.75L257.008 0H0v128.004m.485.496c0 70.4.119 99.053.265 63.672.146-35.38.146-92.98 0-128C.604 29.153.485 58.1.485 128.5" fill="#1976D2" fill-rule="evenodd"/><path fill-opacity=".394" d="M83.215 37.088c2.474 4.02 20.274 35.572 27.368 48.512a456.88 456.88 0 005.023 8.9c1.285 2.2 3.587 6.2 5.115 8.889 4.84 8.515 5.249 9.136 5.264 7.982.015-1.148 6.097-11.877 7.981-14.079.569-.664 1.034-1.481 1.034-1.816 0-.753 28.333-51.562 31.632-56.726l2.396-3.75h-17.43c-17.163 0-17.444.035-18.265 2.25-.458 1.237-2.391 5.004-4.296 8.37l-3.462 6.12-3.717-6.36c-2.044-3.498-4.004-7.265-4.355-8.37-.607-1.912-1.488-2.01-18.106-2.01-17.457 0-17.467.001-16.182 2.088M.667 123.667c-1.294 1.293-.639 9.043 1.873 22.155 3.983 20.789 9.599 34.33 21.104 50.889 18.072 26.011 45.136 44.065 76.186 50.823 9.62 2.094 13.961 2.466 28.767 2.466 14.828 0 19.159-.372 28.948-2.489 6.331-1.369 12.826-3.169 14.433-4 1.608-.831 3.43-1.511 4.05-1.511 2.232 0 16.643-7.436 24.972-12.886 14.526-9.503 30.781-26.646 39.704-41.872 8.588-14.654 14.618-35.033 15.83-53.492l.705-10.75H129.286c-70.374 0-128.253.3-128.619.667M.31 129.5c.005 3.3.192 4.529.415 2.732.222-1.797.218-4.497-.01-6-.229-1.503-.411-.032-.405 3.268M73 154.44V161h-4.55c-6.323 0-9.848 2.125-12.453 7.506-2.702 5.581-2.124 10.201 1.828 14.625 3.257 3.645 9.123 5.025 17.175 4.041l5.5-.672v-38l-3.75-.31-3.75-.311v6.561M87 152c0 3.905.083 4 3.5 4s3.5-.095 3.5-4-.083-4-3.5-4-3.5.095-3.5 4m106.5 9.014c-4.703 1.007-7.341 3.132-8.984 7.237-1.875 4.686-1.916 7.869-.154 12.031 2.377 5.616 5.071 7.218 12.138 7.218 6.817 0 9.369-1.413 12.102-6.698 2.686-5.193 1.237-14.201-2.825-17.572-2.053-1.704-8.899-2.939-12.277-2.216M86.989 171.75c-.015 14.325-.69 17.797-4.13 21.237-1.573 1.573-2.859 3.075-2.859 3.338 0 .264 1.425.976 3.166 1.583 3.97 1.384 6.813-.236 9.185-5.234 1.29-2.719 1.649-6.547 1.649-17.575V161h-7l-.011 10.75m16.261-9.719c-1.495.601-2.25 1.746-2.25 3.412 0 2.278.234 2.418 2.565 1.532 4.275-1.625 8.251-1.188 9.443 1.04 1.197 2.236 1.296 2.168-5.811 3.988-5.569 1.427-8.197 4.101-8.197 8.342 0 5.899 4.941 8.214 15.084 7.066l5.916-.669v-11.216c0-13.525-.651-14.561-9.079-14.463-2.981.035-6.434.471-7.671.968m24.75-.138c-2.471.686-2.503.834-2.781 12.901L124.938 187H133v-9.981c0-9.709.065-9.997 2.407-10.585 1.324-.332 3.349-.1 4.5.516 1.898 1.016 2.093 2.003 2.093 10.585V187h8v-8.257c0-9.401-1.129-14.364-3.712-16.323-1.901-1.442-13.761-1.783-18.288-.527m33.458.987c-6.682 3.035-9.727 9.746-7.493 16.515 1.758 5.326 5.255 7.605 11.67 7.605 4.698 0 5.365.249 5.365 2 0 1.1-.957 2.957-2.127 4.127-1.856 1.856-2.937 2.061-8.5 1.615L154 194.23v2.778c0 3.352 1.391 3.992 8.681 3.992C175.07 201 178 196.89 178 179.509c0-10.782.168-11.825 2.167-13.443 1.371-1.11 1.933-2.363 1.531-3.41-.936-2.439-14.715-2.286-20.24.224m-94.514 3.754c-2.614.736-5.166 6.079-4.453 9.325.82 3.735 2.654 5.203 6.731 5.391l3.278.15V174c0-6.783-.191-7.514-2-7.652-1.1-.083-2.7.046-3.556.286m98.292 1.022c-5.202 2.562-5.778 9.125-1.106 12.599 1.745 1.298 3.357 1.725 4.792 1.27 1.988-.631 2.139-1.259 1.87-7.776-.161-3.899-.742-7.227-1.292-7.395-.55-.168-2.469.418-4.264 1.302m27.803.533c-4.002 4.295-1.685 13.811 3.363 13.811 3.516 0 5.598-3.04 5.598-8.174 0-7.147-4.763-10.144-8.961-5.637m-86.468 9.382c-.864.865-1.571 1.935-1.571 2.378 0 1.676 2.985 3.183 5.69 2.873 2.358-.27 2.86-.845 3.123-3.572.291-3.012.095-3.25-2.678-3.25-1.646 0-3.699.707-4.564 1.571" fill="#1976D2" fill-rule="evenodd"/><path fill-opacity=".559" d="M100.231 36.75c.848.962 2.709 4 4.137 6.75 1.428 2.75 4.292 7.95 6.364 11.556a2048.667 2048.667 0 019.19 16.245c2.983 5.328 5.536 9.575 5.673 9.437.492-.491 25.405-44.959 25.405-45.345 0-.216-3.5-.393-7.777-.393h-7.777l-4.473 8.156c-2.46 4.485-4.921 8.198-5.469 8.25-.548.052-2.198-2.156-3.666-4.906-1.468-2.75-3.103-5.485-3.632-6.077-.529-.592-1.272-2.055-1.651-3.25-.638-2.008-1.34-2.173-9.277-2.173-8.099 0-8.5.1-7.047 1.75M1.46 132.25c2.639 32.561 15.514 60.328 38.223 82.435 49.174 47.869 131.269 47.102 180.35-1.685 8.77-8.718 19.74-24.017 24.074-33.576 7.817-17.239 10.507-27.561 11.515-44.174l.683-11.25H.792l.668 8.25m71.207 16.417c-.367.366-.667 3.066-.667 6V160h-3.599c-8.058 0-13.534 5.201-14.139 13.43-.699 9.501 5.046 14.583 16.456 14.556C81.823 187.96 81 189.61 81 167.383V148h-3.833c-2.109 0-4.134.3-4.5.667m13.526 3.583c.306 4.24.316 4.25 4.307 4.25 3.991 0 4.001-.01 4.307-4.25l.308-4.25h-9.23l.308 4.25m.521 8.369c-.393.393-.714 6.197-.714 12.898 0 13.441-.945 17.562-4.575 19.94-3.215 2.107-3.065 2.867.942 4.778 3.135 1.495 3.57 1.482 6.329-.197 4.836-2.94 5.804-6.784 5.804-23.038v-14.5l-3.536-.298c-1.944-.163-3.857.024-4.25.417m16.036.543c-2.29.837-2.75 1.594-2.75 4.528 0 2.963.279 3.41 1.75 2.807 3.538-1.451 9.975-1.75 10.748-.501.975 1.579-.784 2.634-5.704 3.421-8.172 1.307-11.87 10.019-6.159 14.51 2.118 1.666 4.064 2.073 9.918 2.073 10.906 0 10.447.534 10.447-12.152 0-10.281-.148-11.087-2.455-13.393-2.016-2.017-3.399-2.441-7.75-2.376-2.912.043-6.532.531-8.045 1.083m25.5-.043l-3.25.938v26.058l4.25-.308 4.25-.307.5-10c.484-9.683.578-10.011 2.944-10.345 3.916-.553 5.056 2.161 5.056 12.036V188h8l-.014-10.25c-.016-12.57-.482-14.438-4.063-16.29-3.142-1.625-12.596-1.807-17.673-.341m33.777.704c-6.113 2.342-9.027 6.8-9.027 13.809 0 4.483.467 5.859 2.918 8.602 2.688 3.009 3.396 3.266 8.988 3.266 5.602 0 6.024.154 5.475 2-1.363 4.577-5.538 5.828-13.631 4.085l-3.75-.808v3.636c0 2.983.461 3.812 2.565 4.612 4.761 1.81 12.836 1.178 16.537-1.295 5.546-3.705 6.895-7.629 6.896-20.072.002-9.327.282-11.198 2.002-13.385 2.599-3.304 2.528-4.898-.25-5.643-4.288-1.149-14.271-.513-18.723 1.193m25.405 1.427c-8.426 7.74-5.622 21.757 4.944 24.715 7.39 2.069 14.468-1.081 17.262-7.683 2.872-6.785.735-14.865-4.828-18.256-2.21-1.348-5.06-2.02-8.575-2.022-4.55-.003-5.745.437-8.803 3.246M65 169c-4.13 4.13-1.179 12 4.5 12 2.429 0 2.5-.2 2.5-7s-.071-7-2.5-7c-1.375 0-3.4.9-4.5 2m100.5-.805c-2.786 1.58-3.467 2.831-3.485 6.4-.017 3.506 2.587 6.405 5.755 6.405 3.038 0 3.5-1.365 2.724-8.053-.71-6.115-1.412-6.783-4.994-4.752m28.071.376c-1.871 1.871-2.122 9.478-.371 11.229.66.66 2.405 1.2 3.879 1.2 4.591 0 6.37-8.344 2.718-12.744-1.43-1.723-4.334-1.576-6.226.315m-85.619 9.267c-2.801 2.268-1.842 4.162 2.107 4.162 2.601 0 2.941-.347 2.941-3 0-3.494-1.689-3.882-5.048-1.162" fill="#1976D2" fill-rule="evenodd"/><path fill-opacity=".568" d="M2.371 135.25c1.449 22.126 10.505 45.442 25.246 65 19.118 25.366 47.905 42.748 79.383 47.932 7.113 1.172 35.887 1.172 43 0 32.826-5.406 62.543-23.478 82.295-50.045 14.21-19.113 23.564-46.712 23.688-69.887L256 125H1.699l.672 10.25M72 153.352c0 5.797-.19 6.411-1.853 5.976-3.542-.926-9.886 1.61-13.056 5.221C54.333 167.691 54 168.751 54 174.4c0 7.675 1.921 10.641 8.529 13.164 3.427 1.309 6.105 1.573 11.169 1.1 3.663-.342 7.04-1.002 7.503-1.465.464-.464.721-9.586.571-20.271L81.5 147.5l-4.75-.305-4.75-.305v6.462m14-1.407V157h4.481c3.895 0 4.56-.314 5.083-2.398.331-1.319.452-3.457.269-4.75-.289-2.04-.964-2.392-5.083-2.657L86 146.89v5.055m18 8.385c-4.266 1.109-4.517 1.371-4.818 5.044l-.317 3.873 4.317-.67c7.306-1.134 8.088-1.118 8.544.173.242.688-.159 1.253-.893 1.256-3.066.012-9.098 2.259-10.898 4.059-1.342 1.342-1.935 3.319-1.935 6.45 0 4.02.356 4.731 3.25 6.496 3.336 2.034 10.385 2.612 16.625 1.364l3.125-.625v-11.441c0-6.292-.441-12.264-.979-13.27-1.063-1.987-6.062-4.087-9.42-3.959-1.156.045-4.126.607-6.601 1.25m26.235-.27c-2.346.463-4.709 1.115-5.25 1.449-.564.349-.985 6.129-.985 13.531 0 12.803.022 12.927 2.398 13.524 1.319.331 3.457.452 4.75.269 2.274-.322 2.361-.676 2.638-10.644l.285-10.31 3.215.31 3.214.311.5 10c.478 9.569.601 10.014 2.852 10.333 1.293.183 3.431.062 4.75-.269 2.346-.589 2.398-.836 2.398-11.448 0-9.412-.27-11.19-2.045-13.447-3.272-4.159-9.672-5.393-18.72-3.609m34.558.102c-10.607 2.34-15.828 14.467-10.152 23.583 1.882 3.021 8.077 5.524 12.109 4.891 3.681-.578 3.937-.061 1.614 3.254-1.443 2.062-2.234 2.279-6.75 1.853-2.813-.265-5.929-.824-6.924-1.243-1.625-.682-1.778-.26-1.5 4.12l.31 4.88 8.828.29 8.827.29 3.819-3.819c3.417-3.417 3.895-4.527 4.539-10.54.396-3.697.534-9.646.306-13.221-.228-3.575-.067-6.5.358-6.5 1.292 0 4.051-6.172 3.158-7.063-1.383-1.378-13.507-1.885-18.542-.775m25.227.529c-10.26 5.333-10.854 21.723-.973 26.833 4.149 2.146 11.568 1.877 15.514-.562 3.655-2.258 7.439-9.071 7.439-13.392 0-3.535-3.65-10.11-6.734-12.131-3.796-2.488-11.2-2.851-15.246-.748M85.813 173.2c-.445 14.074-1.714 18.606-5.823 20.806-2.877 1.539-2.481 2.469 1.892 4.441 4.318 1.947 5.984 1.484 9.963-2.77 2.83-3.026 4.402-13.652 3.949-26.696L95.5 160.5l-4.633-.3-4.632-.3-.422 13.3m-20.613-4c-1.314 1.314-1.606 7.632-.435 9.424.404.619 2.198 1.442 3.985 1.83l3.25.705v-6.58c0-6.539-.017-6.579-2.8-6.579-1.54 0-3.34.54-4 1.2m99.29.184c-1.286.94-1.861 2.522-1.792 4.932.134 4.726.868 5.684 4.361 5.684 2.928 0 2.941-.027 2.941-6 0-5.122-.265-6-1.809-6-.995 0-2.66.623-3.701 1.384m28.363 1.039c-.622 1.365-.812 3.983-.435 5.992.821 4.377 4.983 6.125 7.238 3.041 1.6-2.189 1.751-6.827.309-9.522-1.504-2.81-5.742-2.518-7.112.489m-84.603 7.239c-2.517 1.016-1.3 3.338 1.75 3.338 2.333 0 3-.444 3-2 0-1.955-1.896-2.489-4.75-1.338" fill="#1976D2" fill-rule="evenodd"/></svg>